<mxfile host="Electron" agent="Mozilla/5.0 (Windows NT 10.0; Win64; x64) AppleWebKit/537.36 (KHTML, like Gecko) draw.io/26.1.1 Chrome/132.0.6834.210 Electron/34.3.3 Safari/537.36" version="26.1.1">
  <diagram name="第 1 页" id="Vu1QPj_pEziehV3yFOGK">
    <mxGraphModel dx="1925" dy="1989" grid="1" gridSize="10" guides="1" tooltips="1" connect="1" arrows="1" fold="1" page="1" pageScale="1" pageWidth="827" pageHeight="1169" math="0" shadow="0">
      <root>
        <mxCell id="0" />
        <mxCell id="1" parent="0" />
        <mxCell id="paBQVqJ65OehWQmjmNVo-1" value="移动端" style="rounded=1;whiteSpace=wrap;html=1;fillColor=#1ba1e2;fontColor=#ffffff;strokeColor=#006EAF;" vertex="1" parent="1">
          <mxGeometry x="-40" y="-680" width="70" height="35" as="geometry" />
        </mxCell>
        <mxCell id="paBQVqJ65OehWQmjmNVo-2" value="PC端" style="rounded=0;whiteSpace=wrap;html=1;direction=south;fillColor=#1ba1e2;fontColor=#ffffff;strokeColor=#006EAF;" vertex="1" parent="1">
          <mxGeometry x="-170" y="-722.5" width="60" height="120" as="geometry" />
        </mxCell>
        <mxCell id="paBQVqJ65OehWQmjmNVo-3" value="" style="rounded=0;whiteSpace=wrap;html=1;direction=south;fillColor=#FFCE9F;strokeColor=#d79b00;" vertex="1" parent="1">
          <mxGeometry x="-300" y="-500" width="430" height="380" as="geometry" />
        </mxCell>
        <mxCell id="paBQVqJ65OehWQmjmNVo-4" value="Poseidon Gateway" style="text;html=1;strokeColor=none;fillColor=none;align=center;verticalAlign=middle;whiteSpace=wrap;rounded=0;fontStyle=1;fontSize=13;" vertex="1" parent="1">
          <mxGeometry x="-200" y="-500" width="210" height="30" as="geometry" />
        </mxCell>
        <mxCell id="paBQVqJ65OehWQmjmNVo-5" value="" style="rounded=0;whiteSpace=wrap;html=1;" vertex="1" parent="1">
          <mxGeometry x="330" y="-470" width="190" height="130" as="geometry" />
        </mxCell>
        <mxCell id="paBQVqJ65OehWQmjmNVo-6" value="" style="rounded=0;whiteSpace=wrap;html=1;direction=south;" vertex="1" parent="1">
          <mxGeometry x="-430" y="-60" width="780" height="70" as="geometry" />
        </mxCell>
        <mxCell id="paBQVqJ65OehWQmjmNVo-7" value="微服务" style="rounded=0;whiteSpace=wrap;html=1;fillColor=#60a917;fontColor=#ffffff;strokeColor=#2D7600;" vertex="1" parent="1">
          <mxGeometry x="-420" y="-40" width="140" height="30" as="geometry" />
        </mxCell>
        <mxCell id="paBQVqJ65OehWQmjmNVo-8" value="微服务" style="rounded=0;whiteSpace=wrap;html=1;fillColor=#60a917;fontColor=#ffffff;strokeColor=#2D7600;" vertex="1" parent="1">
          <mxGeometry x="-265" y="-40" width="140" height="30" as="geometry" />
        </mxCell>
        <mxCell id="paBQVqJ65OehWQmjmNVo-9" value="微服务" style="rounded=0;whiteSpace=wrap;html=1;fillColor=#60a917;fontColor=#ffffff;strokeColor=#2D7600;" vertex="1" parent="1">
          <mxGeometry x="-110" y="-40" width="140" height="30" as="geometry" />
        </mxCell>
        <mxCell id="paBQVqJ65OehWQmjmNVo-10" value="微服务" style="rounded=0;whiteSpace=wrap;html=1;fillColor=#60a917;fontColor=#ffffff;strokeColor=#2D7600;" vertex="1" parent="1">
          <mxGeometry x="50" y="-40" width="140" height="30" as="geometry" />
        </mxCell>
        <mxCell id="paBQVqJ65OehWQmjmNVo-11" value="配置中心" style="rounded=0;whiteSpace=wrap;html=1;fillColor=#dae8fc;strokeColor=#6c8ebf;" vertex="1" parent="1">
          <mxGeometry x="360" y="-430" width="110" height="30" as="geometry" />
        </mxCell>
        <mxCell id="paBQVqJ65OehWQmjmNVo-12" value="微服务" style="rounded=0;whiteSpace=wrap;html=1;fillColor=#60a917;fontColor=#ffffff;strokeColor=#2D7600;" vertex="1" parent="1">
          <mxGeometry x="200" y="-40" width="140" height="30" as="geometry" />
        </mxCell>
        <mxCell id="paBQVqJ65OehWQmjmNVo-13" value="Apollo" style="text;html=1;strokeColor=none;fillColor=none;align=center;verticalAlign=middle;whiteSpace=wrap;rounded=0;fontStyle=1" vertex="1" parent="1">
          <mxGeometry x="380" y="-470" width="90" height="30" as="geometry" />
        </mxCell>
        <mxCell id="paBQVqJ65OehWQmjmNVo-14" style="edgeStyle=orthogonalEdgeStyle;rounded=0;orthogonalLoop=1;jettySize=auto;html=1;exitX=0;exitY=0.5;exitDx=0;exitDy=0;entryX=0.114;entryY=0.086;entryDx=0;entryDy=0;entryPerimeter=0;" edge="1" parent="1" source="paBQVqJ65OehWQmjmNVo-20" target="paBQVqJ65OehWQmjmNVo-21">
          <mxGeometry relative="1" as="geometry" />
        </mxCell>
        <mxCell id="paBQVqJ65OehWQmjmNVo-15" value="更新" style="edgeLabel;html=1;align=center;verticalAlign=middle;resizable=0;points=[];" vertex="1" connectable="0" parent="paBQVqJ65OehWQmjmNVo-14">
          <mxGeometry x="-0.4253" y="-1" relative="1" as="geometry">
            <mxPoint as="offset" />
          </mxGeometry>
        </mxCell>
        <mxCell id="paBQVqJ65OehWQmjmNVo-16" style="edgeStyle=orthogonalEdgeStyle;rounded=0;orthogonalLoop=1;jettySize=auto;html=1;exitX=1;exitY=0.5;exitDx=0;exitDy=0;entryX=-0.011;entryY=0.308;entryDx=0;entryDy=0;entryPerimeter=0;" edge="1" parent="1" source="paBQVqJ65OehWQmjmNVo-20" target="paBQVqJ65OehWQmjmNVo-5">
          <mxGeometry relative="1" as="geometry" />
        </mxCell>
        <mxCell id="paBQVqJ65OehWQmjmNVo-17" value="定时longPolling 长轮询&amp;nbsp; readtimeout 9000" style="edgeLabel;html=1;align=center;verticalAlign=middle;resizable=0;points=[];" vertex="1" connectable="0" parent="paBQVqJ65OehWQmjmNVo-16">
          <mxGeometry x="-0.2102" y="1" relative="1" as="geometry">
            <mxPoint x="-1" as="offset" />
          </mxGeometry>
        </mxCell>
        <mxCell id="paBQVqJ65OehWQmjmNVo-18" style="edgeStyle=orthogonalEdgeStyle;rounded=0;orthogonalLoop=1;jettySize=auto;html=1;exitX=0;exitY=0.75;exitDx=0;exitDy=0;entryX=0;entryY=0.5;entryDx=0;entryDy=0;" edge="1" parent="1" source="paBQVqJ65OehWQmjmNVo-20" target="paBQVqJ65OehWQmjmNVo-29">
          <mxGeometry relative="1" as="geometry" />
        </mxCell>
        <mxCell id="paBQVqJ65OehWQmjmNVo-19" value="变更事件" style="edgeLabel;html=1;align=center;verticalAlign=middle;resizable=0;points=[];" vertex="1" connectable="0" parent="paBQVqJ65OehWQmjmNVo-18">
          <mxGeometry x="0.4295" y="-2" relative="1" as="geometry">
            <mxPoint as="offset" />
          </mxGeometry>
        </mxCell>
        <mxCell id="paBQVqJ65OehWQmjmNVo-20" value="&lt;div&gt;&lt;pre style=&quot;font-family:&#39;JetBrains Mono&#39;,monospace;font-size:10.5pt;&quot;&gt;RemoteConfigLongPollService&lt;/pre&gt;&lt;/div&gt;&lt;div&gt;&lt;pre style=&quot;font-family:&#39;JetBrains Mono&#39;,monospace;font-size:10.5pt;&quot;&gt;&lt;/pre&gt;&lt;/div&gt;" style="rounded=1;whiteSpace=wrap;html=1;" vertex="1" parent="1">
          <mxGeometry x="-185" y="-450" width="215" height="40" as="geometry" />
        </mxCell>
        <mxCell id="paBQVqJ65OehWQmjmNVo-21" value="&lt;div&gt;&lt;pre style=&quot;font-family:&#39;JetBrains Mono&#39;,monospace;font-size:10.5pt;&quot;&gt;Disk   \opt\data\${appId}\config-cache&lt;/pre&gt;&lt;/div&gt;" style="rounded=0;whiteSpace=wrap;html=1;align=left;" vertex="1" parent="1">
          <mxGeometry x="-300" y="-395" width="430" height="35" as="geometry" />
        </mxCell>
        <mxCell id="paBQVqJ65OehWQmjmNVo-22" value="LoadBalancer负载均衡" style="rounded=1;whiteSpace=wrap;html=1;" vertex="1" parent="1">
          <mxGeometry x="-215" y="-190" width="280" height="60" as="geometry" />
        </mxCell>
        <mxCell id="paBQVqJ65OehWQmjmNVo-23" value="" style="shape=flexArrow;endArrow=classic;html=1;rounded=0;entryX=0;entryY=0.538;entryDx=0;entryDy=0;entryPerimeter=0;" edge="1" parent="1" target="paBQVqJ65OehWQmjmNVo-6">
          <mxGeometry width="50" height="50" relative="1" as="geometry">
            <mxPoint x="-70" y="-120" as="sourcePoint" />
            <mxPoint x="-70" y="-70" as="targetPoint" />
          </mxGeometry>
        </mxCell>
        <mxCell id="paBQVqJ65OehWQmjmNVo-24" value="" style="endArrow=classic;html=1;rounded=0;exitX=1;exitY=0.5;exitDx=0;exitDy=0;entryX=0.5;entryY=0;entryDx=0;entryDy=0;" edge="1" parent="1" source="paBQVqJ65OehWQmjmNVo-2" target="paBQVqJ65OehWQmjmNVo-4">
          <mxGeometry width="50" height="50" relative="1" as="geometry">
            <mxPoint x="-120" y="-540" as="sourcePoint" />
            <mxPoint x="-50" y="-540" as="targetPoint" />
          </mxGeometry>
        </mxCell>
        <mxCell id="paBQVqJ65OehWQmjmNVo-25" value="" style="endArrow=classic;html=1;rounded=0;exitX=0.5;exitY=1;exitDx=0;exitDy=0;entryX=0.538;entryY=0.067;entryDx=0;entryDy=0;entryPerimeter=0;" edge="1" parent="1" source="paBQVqJ65OehWQmjmNVo-1" target="paBQVqJ65OehWQmjmNVo-4">
          <mxGeometry width="50" height="50" relative="1" as="geometry">
            <mxPoint x="10" y="-570" as="sourcePoint" />
            <mxPoint x="80" y="-570" as="targetPoint" />
          </mxGeometry>
        </mxCell>
        <mxCell id="paBQVqJ65OehWQmjmNVo-26" value="/notifications/v2?cluster=default&amp;appId={appid}" style="text;whiteSpace=wrap;" vertex="1" parent="1">
          <mxGeometry x="50" y="-480" width="330" height="40" as="geometry" />
        </mxCell>
        <mxCell id="paBQVqJ65OehWQmjmNVo-27" value="&lt;div style=&quot;background-color:#ffffff;color:#000000&quot;&gt;&lt;pre style=&quot;font-family:&#39;JetBrains Mono&#39;,monospace;font-size:10.5pt;&quot;&gt;&lt;/pre&gt;&lt;/div&gt;" style="text;whiteSpace=wrap;html=1;" vertex="1" parent="1">
          <mxGeometry x="250" y="-430" width="120" height="70" as="geometry" />
        </mxCell>
        <mxCell id="paBQVqJ65OehWQmjmNVo-28" style="edgeStyle=orthogonalEdgeStyle;rounded=0;orthogonalLoop=1;jettySize=auto;html=1;exitX=0.5;exitY=1;exitDx=0;exitDy=0;entryX=0.5;entryY=0;entryDx=0;entryDy=0;" edge="1" parent="1" source="paBQVqJ65OehWQmjmNVo-29" target="paBQVqJ65OehWQmjmNVo-32">
          <mxGeometry relative="1" as="geometry" />
        </mxCell>
        <mxCell id="paBQVqJ65OehWQmjmNVo-29" value="&lt;div&gt;&lt;pre style=&quot;font-family:&#39;JetBrains Mono&#39;,monospace;font-size:10.5pt;&quot;&gt;ConfigChangeListener&lt;/pre&gt;&lt;/div&gt;&lt;div&gt;&lt;pre style=&quot;font-family:&#39;JetBrains Mono&#39;,monospace;font-size:10.5pt;&quot;&gt;&lt;/pre&gt;&lt;/div&gt;" style="rounded=0;whiteSpace=wrap;html=1;align=left;" vertex="1" parent="1">
          <mxGeometry x="-200" y="-340" width="250" height="35" as="geometry" />
        </mxCell>
        <mxCell id="paBQVqJ65OehWQmjmNVo-30" value="&lt;div style=&quot;background-color:#ffffff;color:#000000&quot;&gt;&lt;pre style=&quot;font-family:&#39;JetBrains Mono&#39;,monospace;font-size:10.5pt;&quot;&gt;&lt;/pre&gt;&lt;/div&gt;" style="text;whiteSpace=wrap;html=1;" vertex="1" parent="1">
          <mxGeometry x="320" y="-357.5" width="160" height="70" as="geometry" />
        </mxCell>
        <mxCell id="paBQVqJ65OehWQmjmNVo-31" style="edgeStyle=orthogonalEdgeStyle;rounded=0;orthogonalLoop=1;jettySize=auto;html=1;exitX=0.5;exitY=1;exitDx=0;exitDy=0;" edge="1" parent="1" source="paBQVqJ65OehWQmjmNVo-32" target="paBQVqJ65OehWQmjmNVo-33">
          <mxGeometry relative="1" as="geometry" />
        </mxCell>
        <mxCell id="paBQVqJ65OehWQmjmNVo-32" value="&lt;pre style=&quot;border-color: var(--border-color); font-family: &amp;quot;JetBrains Mono&amp;quot;, monospace; font-size: 10.5pt;&quot;&gt;RefreshRoutesEvent&lt;/pre&gt;&lt;div&gt;&lt;pre style=&quot;font-family:&#39;JetBrains Mono&#39;,monospace;font-size:10.5pt;&quot;&gt;&lt;/pre&gt;&lt;/div&gt;&lt;div&gt;&lt;pre style=&quot;font-family:&#39;JetBrains Mono&#39;,monospace;font-size:10.5pt;&quot;&gt;&lt;/pre&gt;&lt;/div&gt;" style="rounded=0;whiteSpace=wrap;html=1;align=left;" vertex="1" parent="1">
          <mxGeometry x="-200" y="-287.5" width="250" height="35" as="geometry" />
        </mxCell>
        <mxCell id="paBQVqJ65OehWQmjmNVo-33" value="&lt;pre style=&quot;border-color: var(--border-color); font-family: &amp;quot;JetBrains Mono&amp;quot;, monospace; font-size: 10.5pt;&quot;&gt;CachingRouteLocator Refresh routes&lt;br&gt;&lt;/pre&gt;&lt;pre style=&quot;border-color: var(--border-color); font-family: &amp;quot;JetBrains Mono&amp;quot;, monospace; font-size: 10.5pt;&quot;&gt;&lt;/pre&gt;&lt;div&gt;&lt;pre style=&quot;font-family:&#39;JetBrains Mono&#39;,monospace;font-size:10.5pt;&quot;&gt;&lt;/pre&gt;&lt;/div&gt;&lt;div&gt;&lt;pre style=&quot;font-family:&#39;JetBrains Mono&#39;,monospace;font-size:10.5pt;&quot;&gt;&lt;/pre&gt;&lt;/div&gt;" style="rounded=0;whiteSpace=wrap;html=1;align=left;" vertex="1" parent="1">
          <mxGeometry x="-200" y="-240" width="250" height="35" as="geometry" />
        </mxCell>
      </root>
    </mxGraphModel>
  </diagram>
</mxfile>
